# xmcd
#
# Track frame offsets:
#      182
#      26980
#      41030
#      55340
#      71660
#      91535
#      108560
#      126317
#      146047
#      156992
#      182005
#      200080
#      217100
#      233235
#      254027
#      269132
# 
# Disc length: 3856 seconds
#
# Revision: 4
# Processed by: cddbd v1.4PL0 Copyright (c) Steve Scherf et al.
#
# Submitted via: FreeRIP 1.21
#
DISCID=070f0e10
DTITLE=Karussell - Ein Leben lang
DYEAR=1996
DGENRE=Oldies
TTITLE0=Ein Leben lang
TTITLE1=Tanzen
TTITLE2=Whisky
TTITLE3=Stimmungswechsel
TTITLE4=Und der Wind endet nicht
TTITLE5=Lieb ein Mädchen
TTITLE6=Halte durch
TTITLE7=Schlaraffenberg
TTITLE8=Gelber Mond
TTITLE9=Ein langer Weg
TTITLE10=Leben zählt
TTITLE11=Ab und zu
TTITLE12=Doch wenn die Hähne kräh'n
TTITLE13=Jungs
TTITLE14=Wiederseh'n im Traum
TTITLE15=Zweifel
EXTD=Ost-Rock
EXTT0=
EXTT1=
EXTT2=
EXTT3=
EXTT4=
EXTT5=
EXTT6=
EXTT7=
EXTT8=
EXTT9=
EXTT10=
EXTT11=
EXTT12=
EXTT13=
EXTT14=
EXTT15=
PLAYORDER=
